<?xml version="1.0" encoding="UTF-8" standalone="no"?>
<!DOCTYPE svg PUBLIC "-//W3C//DTD SVG 1.1//EN"
 "http://www.w3.org/Graphics/SVG/1.1/DTD/svg11.dtd">
<!-- Generated by graphviz version 12.2.1 (20241206.2353)
 -->
<!-- Title: resnet50 Pages: 1 -->
<svg width="1440pt" height="2250pt"
 viewBox="0.00 0.00 1439.62 2249.50" xmlns="http://www.w3.org/2000/svg" xmlns:xlink="http://www.w3.org/1999/xlink">
<g id="graph0" class="graph" transform="scale(1 1) rotate(0) translate(4 2245.5)">
<title>resnet50</title>
<polygon fill="white" stroke="none" points="-4,4 -4,-2245.5 1435.62,-2245.5 1435.62,4 -4,4"/>
<!-- x -->
<g id="node1" class="node">
<title>x</title>
<path fill="AliceBlue" stroke="black" d="M12,-2143C12,-2143 121,-2143 121,-2143 127,-2143 133,-2149 133,-2155 133,-2155 133,-2229 133,-2229 133,-2235 127,-2241 121,-2241 121,-2241 12,-2241 12,-2241 6,-2241 0,-2235 0,-2229 0,-2229 0,-2155 0,-2155 0,-2149 6,-2143 12,-2143"/>
<text text-anchor="middle" x="66.5" y="-2223.7" font-family="Times,serif" font-size="14.00" fill="#000000">name=%x</text>
<polyline fill="none" stroke="black" points="0,-2216.5 133,-2216.5"/>
<text text-anchor="middle" x="66.5" y="-2199.2" font-family="Times,serif" font-size="14.00" fill="#000000">op_code=placeholder</text>
<polyline fill="none" stroke="black" points="0,-2192 133,-2192"/>
<text text-anchor="middle" x="66.5" y="-2174.7" font-family="Times,serif" font-size="14.00" fill="#000000">target=x</text>
<polyline fill="none" stroke="black" points="0,-2167.5 133,-2167.5"/>
<text text-anchor="middle" x="66.5" y="-2150.2" font-family="Times,serif" font-size="14.00" fill="#000000">num_users=1</text>
</g>
<!-- conv1 -->
<g id="node2" class="node">
<title>conv1</title>
<path fill="#fffacd" stroke="black" d="M211,-1868C211,-1868 374,-1868 374,-1868 380,-1868 386,-1874 386,-1880 386,-1880 386,-2094 386,-2094 386,-2100 380,-2106 374,-2106 374,-2106 211,-2106 211,-2106 205,-2106 199,-2100 199,-2094 199,-2094 199,-1880 199,-1880 199,-1874 205,-1868 211,-1868"/>
<text text-anchor="middle" x="292.5" y="-2088.7" font-family="Times,serif" font-size="14.00" fill="#000000">name=%conv1</text>
<polyline fill="none" stroke="black" points="199,-2081.5 386,-2081.5"/>
<text text-anchor="middle" x="292.5" y="-2064.2" font-family="Times,serif" font-size="14.00" fill="#000000">op_code=call_module</text>
<text text-anchor="middle" x="292.5" y="-2031.7" font-family="Times,serif" font-size="14.00" fill="#000000">torch.nn.modules.conv.Conv2d</text>
<polyline fill="none" stroke="black" points="199,-2024.5 386,-2024.5"/>
<text text-anchor="middle" x="292.5" y="-2007.2" font-family="Times,serif" font-size="14.00" fill="#000000">stride: (1, 1)</text>
<text text-anchor="middle" x="292.5" y="-1990.7" font-family="Times,serif" font-size="14.00" fill="#000000">padding: (1, 1)</text>
<text text-anchor="middle" x="292.5" y="-1974.2" font-family="Times,serif" font-size="14.00" fill="#000000">dilation: (1, 1)</text>
<text text-anchor="middle" x="292.5" y="-1957.7" font-family="Times,serif" font-size="14.00" fill="#000000">groups: 1</text>
<text text-anchor="middle" x="292.5" y="-1941.2" font-family="Times,serif" font-size="14.00" fill="#000000">padding_mode: zeros</text>
<text text-anchor="middle" x="292.5" y="-1924.7" font-family="Times,serif" font-size="14.00" fill="#000000">output_padding: (0, 0)</text>
<text text-anchor="middle" x="292.5" y="-1908.2" font-family="Times,serif" font-size="14.00" fill="#000000">in_channels: 3</text>
<text text-anchor="middle" x="292.5" y="-1891.7" font-family="Times,serif" font-size="14.00" fill="#000000">out_channels: 16</text>
<text text-anchor="middle" x="292.5" y="-1875.2" font-family="Times,serif" font-size="14.00" fill="#000000">kernel_size: (3, 3)</text>
</g>
<!-- x&#45;&gt;conv1 -->
<g id="edge9" class="edge">
<title>x&#45;&gt;conv1</title>
<path fill="none" stroke="black" d="M120.35,-2142.63C141.37,-2123.75 166.19,-2101.45 190.35,-2079.75"/>
<polygon fill="black" stroke="black" points="192.63,-2082.41 197.74,-2073.12 187.96,-2077.2 192.63,-2082.41"/>
</g>
<!-- relu -->
<g id="node5" class="node">
<title>relu</title>
<path fill="#ffe7ba" stroke="black" d="M212.88,-1708.5C212.88,-1708.5 372.12,-1708.5 372.12,-1708.5 378.12,-1708.5 384.12,-1714.5 384.12,-1720.5 384.12,-1720.5 384.12,-1819 384.12,-1819 384.12,-1825 378.12,-1831 372.12,-1831 372.12,-1831 212.88,-1831 212.88,-1831 206.88,-1831 200.88,-1825 200.88,-1819 200.88,-1819 200.88,-1720.5 200.88,-1720.5 200.88,-1714.5 206.88,-1708.5 212.88,-1708.5"/>
<text text-anchor="middle" x="292.5" y="-1813.7" font-family="Times,serif" font-size="14.00" fill="#000000">name=%relu</text>
<polyline fill="none" stroke="black" points="200.88,-1806.5 384.12,-1806.5"/>
<text text-anchor="middle" x="292.5" y="-1789.2" font-family="Times,serif" font-size="14.00" fill="#000000">op_code=call_function</text>
<polyline fill="none" stroke="black" points="200.88,-1782 384.12,-1782"/>
<text text-anchor="middle" x="292.5" y="-1764.7" font-family="Times,serif" font-size="14.00" fill="#000000">target=torch.nn.functional.relu</text>
<polyline fill="none" stroke="black" points="200.88,-1757.5 384.12,-1757.5"/>
<text text-anchor="middle" x="292.5" y="-1740.2" font-family="Times,serif" font-size="14.00" fill="#000000">kwargs={inplace: False,}</text>
<polyline fill="none" stroke="black" points="200.88,-1733 384.12,-1733"/>
<text text-anchor="middle" x="292.5" y="-1715.7" font-family="Times,serif" font-size="14.00" fill="#000000">num_users=1</text>
</g>
<!-- conv1&#45;&gt;relu -->
<g id="edge10" class="edge">
<title>conv1&#45;&gt;relu</title>
<path fill="none" stroke="black" d="M292.5,-1867.67C292.5,-1859.27 292.5,-1850.96 292.5,-1842.94"/>
<polygon fill="black" stroke="black" points="296,-1842.94 292.5,-1832.94 289,-1842.94 296,-1842.94"/>
</g>
<!-- conv1.weight -->
<g id="node3" class="node">
<title>conv1.weight</title>
<path fill="Salmon" stroke="black" d="M163,-2167.5C163,-2167.5 422,-2167.5 422,-2167.5 428,-2167.5 434,-2173.5 434,-2179.5 434,-2179.5 434,-2204.5 434,-2204.5 434,-2210.5 428,-2216.5 422,-2216.5 422,-2216.5 163,-2216.5 163,-2216.5 157,-2216.5 151,-2210.5 151,-2204.5 151,-2204.5 151,-2179.5 151,-2179.5 151,-2173.5 157,-2167.5 163,-2167.5"/>
<text text-anchor="middle" x="292.5" y="-2199.2" font-family="Times,serif" font-size="14.00" fill="#000000">conv1.weight</text>
<polyline fill="none" stroke="black" points="151,-2192 434,-2192"/>
<text text-anchor="middle" x="292.5" y="-2174.7" font-family="Times,serif" font-size="14.00" fill="#000000">op_code=get_parametertorch.float32[16, 3, 3, 3]</text>
</g>
<!-- conv1.weight&#45;&gt;conv1 -->
<g id="edge1" class="edge">
<title>conv1.weight&#45;&gt;conv1</title>
<path fill="none" stroke="black" d="M292.5,-2167.32C292.5,-2154.11 292.5,-2136.52 292.5,-2117.51"/>
<polygon fill="black" stroke="black" points="296,-2117.69 292.5,-2107.69 289,-2117.69 296,-2117.69"/>
</g>
<!-- conv1.bias -->
<g id="node4" class="node">
<title>conv1.bias</title>
<path fill="Salmon" stroke="black" d="M464.38,-2167.5C464.38,-2167.5 680.62,-2167.5 680.62,-2167.5 686.62,-2167.5 692.62,-2173.5 692.62,-2179.5 692.62,-2179.5 692.62,-2204.5 692.62,-2204.5 692.62,-2210.5 686.62,-2216.5 680.62,-2216.5 680.62,-2216.5 464.38,-2216.5 464.38,-2216.5 458.38,-2216.5 452.38,-2210.5 452.38,-2204.5 452.38,-2204.5 452.38,-2179.5 452.38,-2179.5 452.38,-2173.5 458.38,-2167.5 464.38,-2167.5"/>
<text text-anchor="middle" x="572.5" y="-2199.2" font-family="Times,serif" font-size="14.00" fill="#000000">conv1.bias</text>
<polyline fill="none" stroke="black" points="452.38,-2192 692.62,-2192"/>
<text text-anchor="middle" x="572.5" y="-2174.7" font-family="Times,serif" font-size="14.00" fill="#000000">op_code=get_parametertorch.float32[16]</text>
</g>
<!-- conv1.bias&#45;&gt;conv1 -->
<g id="edge2" class="edge">
<title>conv1.bias&#45;&gt;conv1</title>
<path fill="none" stroke="black" d="M539.56,-2167.12C504.24,-2141.51 446.36,-2099.55 395.51,-2062.68"/>
<polygon fill="black" stroke="black" points="397.81,-2060.02 387.66,-2056.99 393.7,-2065.69 397.81,-2060.02"/>
</g>
<!-- pool -->
<g id="node6" class="node">
<title>pool</title>
<path fill="#fffacd" stroke="black" d="M192.62,-1483C192.62,-1483 392.38,-1483 392.38,-1483 398.38,-1483 404.38,-1489 404.38,-1495 404.38,-1495 404.38,-1659.5 404.38,-1659.5 404.38,-1665.5 398.38,-1671.5 392.38,-1671.5 392.38,-1671.5 192.62,-1671.5 192.62,-1671.5 186.62,-1671.5 180.62,-1665.5 180.62,-1659.5 180.62,-1659.5 180.62,-1495 180.62,-1495 180.62,-1489 186.62,-1483 192.62,-1483"/>
<text text-anchor="middle" x="292.5" y="-1654.2" font-family="Times,serif" font-size="14.00" fill="#000000">name=%pool</text>
<polyline fill="none" stroke="black" points="180.62,-1647 404.38,-1647"/>
<text text-anchor="middle" x="292.5" y="-1629.7" font-family="Times,serif" font-size="14.00" fill="#000000">op_code=call_module</text>
<text text-anchor="middle" x="292.5" y="-1597.2" font-family="Times,serif" font-size="14.00" fill="#000000">torch.nn.modules.pooling.MaxPool2d</text>
<polyline fill="none" stroke="black" points="180.62,-1590 404.38,-1590"/>
<text text-anchor="middle" x="292.5" y="-1572.7" font-family="Times,serif" font-size="14.00" fill="#000000">kernel_size: 2</text>
<text text-anchor="middle" x="292.5" y="-1556.2" font-family="Times,serif" font-size="14.00" fill="#000000">stride: 2</text>
<text text-anchor="middle" x="292.5" y="-1539.7" font-family="Times,serif" font-size="14.00" fill="#000000">padding: 0</text>
<text text-anchor="middle" x="292.5" y="-1523.2" font-family="Times,serif" font-size="14.00" fill="#000000">dilation: 1</text>
<text text-anchor="middle" x="292.5" y="-1506.7" font-family="Times,serif" font-size="14.00" fill="#000000">return_indices: False</text>
<text text-anchor="middle" x="292.5" y="-1490.2" font-family="Times,serif" font-size="14.00" fill="#000000">ceil_mode: False</text>
</g>
<!-- relu&#45;&gt;pool -->
<g id="edge11" class="edge">
<title>relu&#45;&gt;pool</title>
<path fill="none" stroke="black" d="M292.5,-1708.21C292.5,-1700.11 292.5,-1691.61 292.5,-1683.01"/>
<polygon fill="black" stroke="black" points="296,-1683.19 292.5,-1673.19 289,-1683.19 296,-1683.19"/>
</g>
<!-- conv2 -->
<g id="node7" class="node">
<title>conv2</title>
<path fill="#fffacd" stroke="black" d="M486,-1208C486,-1208 649,-1208 649,-1208 655,-1208 661,-1214 661,-1220 661,-1220 661,-1434 661,-1434 661,-1440 655,-1446 649,-1446 649,-1446 486,-1446 486,-1446 480,-1446 474,-1440 474,-1434 474,-1434 474,-1220 474,-1220 474,-1214 480,-1208 486,-1208"/>
<text text-anchor="middle" x="567.5" y="-1428.7" font-family="Times,serif" font-size="14.00" fill="#000000">name=%conv2</text>
<polyline fill="none" stroke="black" points="474,-1421.5 661,-1421.5"/>
<text text-anchor="middle" x="567.5" y="-1404.2" font-family="Times,serif" font-size="14.00" fill="#000000">op_code=call_module</text>
<text text-anchor="middle" x="567.5" y="-1371.7" font-family="Times,serif" font-size="14.00" fill="#000000">torch.nn.modules.conv.Conv2d</text>
<polyline fill="none" stroke="black" points="474,-1364.5 661,-1364.5"/>
<text text-anchor="middle" x="567.5" y="-1347.2" font-family="Times,serif" font-size="14.00" fill="#000000">stride: (1, 1)</text>
<text text-anchor="middle" x="567.5" y="-1330.7" font-family="Times,serif" font-size="14.00" fill="#000000">padding: (1, 1)</text>
<text text-anchor="middle" x="567.5" y="-1314.2" font-family="Times,serif" font-size="14.00" fill="#000000">dilation: (1, 1)</text>
<text text-anchor="middle" x="567.5" y="-1297.7" font-family="Times,serif" font-size="14.00" fill="#000000">groups: 1</text>
<text text-anchor="middle" x="567.5" y="-1281.2" font-family="Times,serif" font-size="14.00" fill="#000000">padding_mode: zeros</text>
<text text-anchor="middle" x="567.5" y="-1264.7" font-family="Times,serif" font-size="14.00" fill="#000000">output_padding: (0, 0)</text>
<text text-anchor="middle" x="567.5" y="-1248.2" font-family="Times,serif" font-size="14.00" fill="#000000">in_channels: 16</text>
<text text-anchor="middle" x="567.5" y="-1231.7" font-family="Times,serif" font-size="14.00" fill="#000000">out_channels: 32</text>
<text text-anchor="middle" x="567.5" y="-1215.2" font-family="Times,serif" font-size="14.00" fill="#000000">kernel_size: (3, 3)</text>
</g>
<!-- pool&#45;&gt;conv2 -->
<g id="edge12" class="edge">
<title>pool&#45;&gt;conv2</title>
<path fill="none" stroke="black" d="M396.07,-1482.75C418.72,-1462.31 442.67,-1440.68 465.27,-1420.29"/>
<polygon fill="black" stroke="black" points="467.32,-1423.15 472.4,-1413.85 462.63,-1417.95 467.32,-1423.15"/>
</g>
<!-- relu_1 -->
<g id="node10" class="node">
<title>relu_1</title>
<path fill="#ffe7ba" stroke="black" d="M487.88,-1048.5C487.88,-1048.5 647.12,-1048.5 647.12,-1048.5 653.12,-1048.5 659.12,-1054.5 659.12,-1060.5 659.12,-1060.5 659.12,-1159 659.12,-1159 659.12,-1165 653.12,-1171 647.12,-1171 647.12,-1171 487.88,-1171 487.88,-1171 481.88,-1171 475.88,-1165 475.88,-1159 475.88,-1159 475.88,-1060.5 475.88,-1060.5 475.88,-1054.5 481.88,-1048.5 487.88,-1048.5"/>
<text text-anchor="middle" x="567.5" y="-1153.7" font-family="Times,serif" font-size="14.00" fill="#000000">name=%relu_1</text>
<polyline fill="none" stroke="black" points="475.88,-1146.5 659.12,-1146.5"/>
<text text-anchor="middle" x="567.5" y="-1129.2" font-family="Times,serif" font-size="14.00" fill="#000000">op_code=call_function</text>
<polyline fill="none" stroke="black" points="475.88,-1122 659.12,-1122"/>
<text text-anchor="middle" x="567.5" y="-1104.7" font-family="Times,serif" font-size="14.00" fill="#000000">target=torch.nn.functional.relu</text>
<polyline fill="none" stroke="black" points="475.88,-1097.5 659.12,-1097.5"/>
<text text-anchor="middle" x="567.5" y="-1080.2" font-family="Times,serif" font-size="14.00" fill="#000000">kwargs={inplace: False,}</text>
<polyline fill="none" stroke="black" points="475.88,-1073 659.12,-1073"/>
<text text-anchor="middle" x="567.5" y="-1055.7" font-family="Times,serif" font-size="14.00" fill="#000000">num_users=1</text>
</g>
<!-- conv2&#45;&gt;relu_1 -->
<g id="edge13" class="edge">
<title>conv2&#45;&gt;relu_1</title>
<path fill="none" stroke="black" d="M567.5,-1207.67C567.5,-1199.27 567.5,-1190.96 567.5,-1182.94"/>
<polygon fill="black" stroke="black" points="571,-1182.94 567.5,-1172.94 564,-1182.94 571,-1182.94"/>
</g>
<!-- conv2.weight -->
<g id="node8" class="node">
<title>conv2.weight</title>
<path fill="Salmon" stroke="black" d="M434.62,-1552.75C434.62,-1552.75 700.38,-1552.75 700.38,-1552.75 706.38,-1552.75 712.38,-1558.75 712.38,-1564.75 712.38,-1564.75 712.38,-1589.75 712.38,-1589.75 712.38,-1595.75 706.38,-1601.75 700.38,-1601.75 700.38,-1601.75 434.62,-1601.75 434.62,-1601.75 428.62,-1601.75 422.62,-1595.75 422.62,-1589.75 422.62,-1589.75 422.62,-1564.75 422.62,-1564.75 422.62,-1558.75 428.62,-1552.75 434.62,-1552.75"/>
<text text-anchor="middle" x="567.5" y="-1584.45" font-family="Times,serif" font-size="14.00" fill="#000000">conv2.weight</text>
<polyline fill="none" stroke="black" points="422.62,-1577.25 712.38,-1577.25"/>
<text text-anchor="middle" x="567.5" y="-1559.95" font-family="Times,serif" font-size="14.00" fill="#000000">op_code=get_parametertorch.float32[32, 16, 3, 3]</text>
</g>
<!-- conv2.weight&#45;&gt;conv2 -->
<g id="edge3" class="edge">
<title>conv2.weight&#45;&gt;conv2</title>
<path fill="none" stroke="black" d="M567.5,-1552.45C567.5,-1529.9 567.5,-1494.17 567.5,-1457.78"/>
<polygon fill="black" stroke="black" points="571,-1458 567.5,-1448 564,-1458 571,-1458"/>
</g>
<!-- conv2.bias -->
<g id="node9" class="node">
<title>conv2.bias</title>
<path fill="Salmon" stroke="black" d="M742.38,-1552.75C742.38,-1552.75 958.62,-1552.75 958.62,-1552.75 964.62,-1552.75 970.62,-1558.75 970.62,-1564.75 970.62,-1564.75 970.62,-1589.75 970.62,-1589.75 970.62,-1595.75 964.62,-1601.75 958.62,-1601.75 958.62,-1601.75 742.38,-1601.75 742.38,-1601.75 736.38,-1601.75 730.38,-1595.75 730.38,-1589.75 730.38,-1589.75 730.38,-1564.75 730.38,-1564.75 730.38,-1558.75 736.38,-1552.75 742.38,-1552.75"/>
<text text-anchor="middle" x="850.5" y="-1584.45" font-family="Times,serif" font-size="14.00" fill="#000000">conv2.bias</text>
<polyline fill="none" stroke="black" points="730.38,-1577.25 970.62,-1577.25"/>
<text text-anchor="middle" x="850.5" y="-1559.95" font-family="Times,serif" font-size="14.00" fill="#000000">op_code=get_parametertorch.float32[32]</text>
</g>
<!-- conv2.bias&#45;&gt;conv2 -->
<g id="edge4" class="edge">
<title>conv2.bias&#45;&gt;conv2</title>
<path fill="none" stroke="black" d="M823.36,-1552.45C788.16,-1521.57 724.76,-1465.95 669.88,-1417.81"/>
<polygon fill="black" stroke="black" points="672.46,-1415.42 662.64,-1411.46 667.85,-1420.68 672.46,-1415.42"/>
</g>
<!-- pool_1 -->
<g id="node11" class="node">
<title>pool_1</title>
<path fill="#fffacd" stroke="black" d="M467.62,-823C467.62,-823 667.38,-823 667.38,-823 673.38,-823 679.38,-829 679.38,-835 679.38,-835 679.38,-999.5 679.38,-999.5 679.38,-1005.5 673.38,-1011.5 667.38,-1011.5 667.38,-1011.5 467.62,-1011.5 467.62,-1011.5 461.62,-1011.5 455.62,-1005.5 455.62,-999.5 455.62,-999.5 455.62,-835 455.62,-835 455.62,-829 461.62,-823 467.62,-823"/>
<text text-anchor="middle" x="567.5" y="-994.2" font-family="Times,serif" font-size="14.00" fill="#000000">name=%pool_1</text>
<polyline fill="none" stroke="black" points="455.62,-987 679.38,-987"/>
<text text-anchor="middle" x="567.5" y="-969.7" font-family="Times,serif" font-size="14.00" fill="#000000">op_code=call_module</text>
<text text-anchor="middle" x="567.5" y="-937.2" font-family="Times,serif" font-size="14.00" fill="#000000">torch.nn.modules.pooling.MaxPool2d</text>
<polyline fill="none" stroke="black" points="455.62,-930 679.38,-930"/>
<text text-anchor="middle" x="567.5" y="-912.7" font-family="Times,serif" font-size="14.00" fill="#000000">kernel_size: 2</text>
<text text-anchor="middle" x="567.5" y="-896.2" font-family="Times,serif" font-size="14.00" fill="#000000">stride: 2</text>
<text text-anchor="middle" x="567.5" y="-879.7" font-family="Times,serif" font-size="14.00" fill="#000000">padding: 0</text>
<text text-anchor="middle" x="567.5" y="-863.2" font-family="Times,serif" font-size="14.00" fill="#000000">dilation: 1</text>
<text text-anchor="middle" x="567.5" y="-846.7" font-family="Times,serif" font-size="14.00" fill="#000000">return_indices: False</text>
<text text-anchor="middle" x="567.5" y="-830.2" font-family="Times,serif" font-size="14.00" fill="#000000">ceil_mode: False</text>
</g>
<!-- relu_1&#45;&gt;pool_1 -->
<g id="edge14" class="edge">
<title>relu_1&#45;&gt;pool_1</title>
<path fill="none" stroke="black" d="M567.5,-1048.21C567.5,-1040.11 567.5,-1031.61 567.5,-1023.01"/>
<polygon fill="black" stroke="black" points="571,-1023.19 567.5,-1013.19 564,-1023.19 571,-1023.19"/>
</g>
<!-- view -->
<g id="node12" class="node">
<title>view</title>
<path fill="#caff70" stroke="black" d="M510.75,-614C510.75,-614 624.25,-614 624.25,-614 630.25,-614 636.25,-620 636.25,-626 636.25,-626 636.25,-774 636.25,-774 636.25,-780 630.25,-786 624.25,-786 624.25,-786 510.75,-786 510.75,-786 504.75,-786 498.75,-780 498.75,-774 498.75,-774 498.75,-626 498.75,-626 498.75,-620 504.75,-614 510.75,-614"/>
<text text-anchor="middle" x="567.5" y="-768.7" font-family="Times,serif" font-size="14.00" fill="#000000">name=%view</text>
<polyline fill="none" stroke="black" points="498.75,-761.5 636.25,-761.5"/>
<text text-anchor="middle" x="567.5" y="-744.2" font-family="Times,serif" font-size="14.00" fill="#000000">op_code=call_method</text>
<polyline fill="none" stroke="black" points="498.75,-737 636.25,-737"/>
<text text-anchor="middle" x="567.5" y="-719.7" font-family="Times,serif" font-size="14.00" fill="#000000">target=view</text>
<polyline fill="none" stroke="black" points="498.75,-712.5 636.25,-712.5"/>
<text text-anchor="start" x="506.75" y="-695.2" font-family="Times,serif" font-size="14.00" fill="#000000">args=(</text>
<text text-anchor="middle" x="567.5" y="-678.7" font-family="Times,serif" font-size="14.00" fill="#000000">&#45;1,</text>
<text text-anchor="middle" x="567.5" y="-662.2" font-family="Times,serif" font-size="14.00" fill="#000000">2048,</text>
<text text-anchor="start" x="506.75" y="-645.7" font-family="Times,serif" font-size="14.00" fill="#000000">)</text>
<polyline fill="none" stroke="black" points="498.75,-638.5 636.25,-638.5"/>
<text text-anchor="middle" x="567.5" y="-621.2" font-family="Times,serif" font-size="14.00" fill="#000000">num_users=1</text>
</g>
<!-- pool_1&#45;&gt;view -->
<g id="edge15" class="edge">
<title>pool_1&#45;&gt;view</title>
<path fill="none" stroke="black" d="M567.5,-822.78C567.5,-814.43 567.5,-805.97 567.5,-797.6"/>
<polygon fill="black" stroke="black" points="571,-797.77 567.5,-787.77 564,-797.77 571,-797.77"/>
</g>
<!-- fc1 -->
<g id="node13" class="node">
<title>fc1</title>
<path fill="#fffacd" stroke="black" d="M715.5,-454.5C715.5,-454.5 875.5,-454.5 875.5,-454.5 881.5,-454.5 887.5,-460.5 887.5,-466.5 887.5,-466.5 887.5,-565 887.5,-565 887.5,-571 881.5,-577 875.5,-577 875.5,-577 715.5,-577 715.5,-577 709.5,-577 703.5,-571 703.5,-565 703.5,-565 703.5,-466.5 703.5,-466.5 703.5,-460.5 709.5,-454.5 715.5,-454.5"/>
<text text-anchor="middle" x="795.5" y="-559.7" font-family="Times,serif" font-size="14.00" fill="#000000">name=%fc1</text>
<polyline fill="none" stroke="black" points="703.5,-552.5 887.5,-552.5"/>
<text text-anchor="middle" x="795.5" y="-535.2" font-family="Times,serif" font-size="14.00" fill="#000000">op_code=call_module</text>
<text text-anchor="middle" x="795.5" y="-502.7" font-family="Times,serif" font-size="14.00" fill="#000000">torch.nn.modules.linear.Linear</text>
<polyline fill="none" stroke="black" points="703.5,-495.5 887.5,-495.5"/>
<text text-anchor="middle" x="795.5" y="-478.2" font-family="Times,serif" font-size="14.00" fill="#000000">in_features: 2048</text>
<text text-anchor="middle" x="795.5" y="-461.7" font-family="Times,serif" font-size="14.00" fill="#000000">out_features: 128</text>
</g>
<!-- view&#45;&gt;fc1 -->
<g id="edge16" class="edge">
<title>view&#45;&gt;fc1</title>
<path fill="none" stroke="black" d="M636.32,-621.6C639.37,-618.81 642.43,-616.1 645.5,-613.5 660.47,-600.84 677.21,-588.52 693.92,-577.16"/>
<polygon fill="black" stroke="black" points="695.58,-580.26 701.94,-571.79 691.68,-574.45 695.58,-580.26"/>
</g>
<!-- relu_2 -->
<g id="node16" class="node">
<title>relu_2</title>
<path fill="#ffe7ba" stroke="black" d="M715.88,-295C715.88,-295 875.12,-295 875.12,-295 881.12,-295 887.12,-301 887.12,-307 887.12,-307 887.12,-405.5 887.12,-405.5 887.12,-411.5 881.12,-417.5 875.12,-417.5 875.12,-417.5 715.88,-417.5 715.88,-417.5 709.88,-417.5 703.88,-411.5 703.88,-405.5 703.88,-405.5 703.88,-307 703.88,-307 703.88,-301 709.88,-295 715.88,-295"/>
<text text-anchor="middle" x="795.5" y="-400.2" font-family="Times,serif" font-size="14.00" fill="#000000">name=%relu_2</text>
<polyline fill="none" stroke="black" points="703.88,-393 887.12,-393"/>
<text text-anchor="middle" x="795.5" y="-375.7" font-family="Times,serif" font-size="14.00" fill="#000000">op_code=call_function</text>
<polyline fill="none" stroke="black" points="703.88,-368.5 887.12,-368.5"/>
<text text-anchor="middle" x="795.5" y="-351.2" font-family="Times,serif" font-size="14.00" fill="#000000">target=torch.nn.functional.relu</text>
<polyline fill="none" stroke="black" points="703.88,-344 887.12,-344"/>
<text text-anchor="middle" x="795.5" y="-326.7" font-family="Times,serif" font-size="14.00" fill="#000000">kwargs={inplace: False,}</text>
<polyline fill="none" stroke="black" points="703.88,-319.5 887.12,-319.5"/>
<text text-anchor="middle" x="795.5" y="-302.2" font-family="Times,serif" font-size="14.00" fill="#000000">num_users=1</text>
</g>
<!-- fc1&#45;&gt;relu_2 -->
<g id="edge17" class="edge">
<title>fc1&#45;&gt;relu_2</title>
<path fill="none" stroke="black" d="M795.5,-454.31C795.5,-446.08 795.5,-437.56 795.5,-429.16"/>
<polygon fill="black" stroke="black" points="799,-429.31 795.5,-419.31 792,-429.31 799,-429.31"/>
</g>
<!-- fc1.weight -->
<g id="node14" class="node">
<title>fc1.weight</title>
<path fill="Salmon" stroke="black" d="M666.75,-675.5C666.75,-675.5 924.25,-675.5 924.25,-675.5 930.25,-675.5 936.25,-681.5 936.25,-687.5 936.25,-687.5 936.25,-712.5 936.25,-712.5 936.25,-718.5 930.25,-724.5 924.25,-724.5 924.25,-724.5 666.75,-724.5 666.75,-724.5 660.75,-724.5 654.75,-718.5 654.75,-712.5 654.75,-712.5 654.75,-687.5 654.75,-687.5 654.75,-681.5 660.75,-675.5 666.75,-675.5"/>
<text text-anchor="middle" x="795.5" y="-707.2" font-family="Times,serif" font-size="14.00" fill="#000000">fc1.weight</text>
<polyline fill="none" stroke="black" points="654.75,-700 936.25,-700"/>
<text text-anchor="middle" x="795.5" y="-682.7" font-family="Times,serif" font-size="14.00" fill="#000000">op_code=get_parametertorch.float32[128, 2048]</text>
</g>
<!-- fc1.weight&#45;&gt;fc1 -->
<g id="edge5" class="edge">
<title>fc1.weight&#45;&gt;fc1</title>
<path fill="none" stroke="black" d="M795.5,-675.17C795.5,-653.18 795.5,-619.35 795.5,-588.6"/>
<polygon fill="black" stroke="black" points="799,-588.95 795.5,-578.95 792,-588.95 799,-588.95"/>
</g>
<!-- fc1.bias -->
<g id="node15" class="node">
<title>fc1.bias</title>
<path fill="Salmon" stroke="black" d="M966,-675.5C966,-675.5 1189,-675.5 1189,-675.5 1195,-675.5 1201,-681.5 1201,-687.5 1201,-687.5 1201,-712.5 1201,-712.5 1201,-718.5 1195,-724.5 1189,-724.5 1189,-724.5 966,-724.5 966,-724.5 960,-724.5 954,-718.5 954,-712.5 954,-712.5 954,-687.5 954,-687.5 954,-681.5 960,-675.5 966,-675.5"/>
<text text-anchor="middle" x="1077.5" y="-707.2" font-family="Times,serif" font-size="14.00" fill="#000000">fc1.bias</text>
<polyline fill="none" stroke="black" points="954,-700 1201,-700"/>
<text text-anchor="middle" x="1077.5" y="-682.7" font-family="Times,serif" font-size="14.00" fill="#000000">op_code=get_parametertorch.float32[128]</text>
</g>
<!-- fc1.bias&#45;&gt;fc1 -->
<g id="edge6" class="edge">
<title>fc1.bias&#45;&gt;fc1</title>
<path fill="none" stroke="black" d="M1040.53,-675.03C1014.07,-657.88 977.6,-634.25 945.5,-613.5 929.94,-603.45 913.48,-592.81 897.37,-582.42"/>
<polygon fill="black" stroke="black" points="899.51,-579.63 889.21,-577.15 895.71,-585.52 899.51,-579.63"/>
</g>
<!-- fc2 -->
<g id="node17" class="node">
<title>fc2</title>
<path fill="#fffacd" stroke="black" d="M959.5,-135.5C959.5,-135.5 1119.5,-135.5 1119.5,-135.5 1125.5,-135.5 1131.5,-141.5 1131.5,-147.5 1131.5,-147.5 1131.5,-246 1131.5,-246 1131.5,-252 1125.5,-258 1119.5,-258 1119.5,-258 959.5,-258 959.5,-258 953.5,-258 947.5,-252 947.5,-246 947.5,-246 947.5,-147.5 947.5,-147.5 947.5,-141.5 953.5,-135.5 959.5,-135.5"/>
<text text-anchor="middle" x="1039.5" y="-240.7" font-family="Times,serif" font-size="14.00" fill="#000000">name=%fc2</text>
<polyline fill="none" stroke="black" points="947.5,-233.5 1131.5,-233.5"/>
<text text-anchor="middle" x="1039.5" y="-216.2" font-family="Times,serif" font-size="14.00" fill="#000000">op_code=call_module</text>
<text text-anchor="middle" x="1039.5" y="-183.7" font-family="Times,serif" font-size="14.00" fill="#000000">torch.nn.modules.linear.Linear</text>
<polyline fill="none" stroke="black" points="947.5,-176.5 1131.5,-176.5"/>
<text text-anchor="middle" x="1039.5" y="-159.2" font-family="Times,serif" font-size="14.00" fill="#000000">in_features: 128</text>
<text text-anchor="middle" x="1039.5" y="-142.7" font-family="Times,serif" font-size="14.00" fill="#000000">out_features: 10</text>
</g>
<!-- relu_2&#45;&gt;fc2 -->
<g id="edge18" class="edge">
<title>relu_2&#45;&gt;fc2</title>
<path fill="none" stroke="black" d="M887.4,-295.93C903.93,-285.26 921.24,-274.09 938.02,-263.25"/>
<polygon fill="black" stroke="black" points="939.5,-266.46 946.01,-258.1 935.71,-260.58 939.5,-266.46"/>
</g>
<!-- output -->
<g id="node20" class="node">
<title>output</title>
<path fill="PowderBlue" stroke="black" d="M999.25,-0.5C999.25,-0.5 1079.75,-0.5 1079.75,-0.5 1085.75,-0.5 1091.75,-6.5 1091.75,-12.5 1091.75,-12.5 1091.75,-86.5 1091.75,-86.5 1091.75,-92.5 1085.75,-98.5 1079.75,-98.5 1079.75,-98.5 999.25,-98.5 999.25,-98.5 993.25,-98.5 987.25,-92.5 987.25,-86.5 987.25,-86.5 987.25,-12.5 987.25,-12.5 987.25,-6.5 993.25,-0.5 999.25,-0.5"/>
<text text-anchor="middle" x="1039.5" y="-81.2" font-family="Times,serif" font-size="14.00" fill="#000000">name=%output</text>
<polyline fill="none" stroke="black" points="987.25,-74 1091.75,-74"/>
<text text-anchor="middle" x="1039.5" y="-56.7" font-family="Times,serif" font-size="14.00" fill="#000000">op_code=output</text>
<polyline fill="none" stroke="black" points="987.25,-49.5 1091.75,-49.5"/>
<text text-anchor="middle" x="1039.5" y="-32.2" font-family="Times,serif" font-size="14.00" fill="#000000">target=output</text>
<polyline fill="none" stroke="black" points="987.25,-25 1091.75,-25"/>
<text text-anchor="middle" x="1039.5" y="-7.7" font-family="Times,serif" font-size="14.00" fill="#000000">num_users=0</text>
</g>
<!-- fc2&#45;&gt;output -->
<g id="edge19" class="edge">
<title>fc2&#45;&gt;output</title>
<path fill="none" stroke="black" d="M1039.5,-135.41C1039.5,-127.15 1039.5,-118.67 1039.5,-110.41"/>
<polygon fill="black" stroke="black" points="1043,-110.45 1039.5,-100.45 1036,-110.45 1043,-110.45"/>
</g>
<!-- fc2.weight -->
<g id="node18" class="node">
<title>fc2.weight</title>
<path fill="Salmon" stroke="black" d="M917.5,-331.75C917.5,-331.75 1161.5,-331.75 1161.5,-331.75 1167.5,-331.75 1173.5,-337.75 1173.5,-343.75 1173.5,-343.75 1173.5,-368.75 1173.5,-368.75 1173.5,-374.75 1167.5,-380.75 1161.5,-380.75 1161.5,-380.75 917.5,-380.75 917.5,-380.75 911.5,-380.75 905.5,-374.75 905.5,-368.75 905.5,-368.75 905.5,-343.75 905.5,-343.75 905.5,-337.75 911.5,-331.75 917.5,-331.75"/>
<text text-anchor="middle" x="1039.5" y="-363.45" font-family="Times,serif" font-size="14.00" fill="#000000">fc2.weight</text>
<polyline fill="none" stroke="black" points="905.5,-356.25 1173.5,-356.25"/>
<text text-anchor="middle" x="1039.5" y="-338.95" font-family="Times,serif" font-size="14.00" fill="#000000">op_code=get_parametertorch.float32[10, 128]</text>
</g>
<!-- fc2.weight&#45;&gt;fc2 -->
<g id="edge7" class="edge">
<title>fc2.weight&#45;&gt;fc2</title>
<path fill="none" stroke="black" d="M1039.5,-331.33C1039.5,-314.84 1039.5,-291.99 1039.5,-269.84"/>
<polygon fill="black" stroke="black" points="1043,-269.87 1039.5,-259.87 1036,-269.87 1043,-269.87"/>
</g>
<!-- fc2.bias -->
<g id="node19" class="node">
<title>fc2.bias</title>
<path fill="Salmon" stroke="black" d="M1203.38,-331.75C1203.38,-331.75 1419.62,-331.75 1419.62,-331.75 1425.62,-331.75 1431.62,-337.75 1431.62,-343.75 1431.62,-343.75 1431.62,-368.75 1431.62,-368.75 1431.62,-374.75 1425.62,-380.75 1419.62,-380.75 1419.62,-380.75 1203.38,-380.75 1203.38,-380.75 1197.38,-380.75 1191.38,-374.75 1191.38,-368.75 1191.38,-368.75 1191.38,-343.75 1191.38,-343.75 1191.38,-337.75 1197.38,-331.75 1203.38,-331.75"/>
<text text-anchor="middle" x="1311.5" y="-363.45" font-family="Times,serif" font-size="14.00" fill="#000000">fc2.bias</text>
<polyline fill="none" stroke="black" points="1191.38,-356.25 1431.62,-356.25"/>
<text text-anchor="middle" x="1311.5" y="-338.95" font-family="Times,serif" font-size="14.00" fill="#000000">op_code=get_parametertorch.float32[10]</text>
</g>
<!-- fc2.bias&#45;&gt;fc2 -->
<g id="edge8" class="edge">
<title>fc2.bias&#45;&gt;fc2</title>
<path fill="none" stroke="black" d="M1270.19,-331.33C1236.13,-311.61 1186.34,-282.78 1141.72,-256.94"/>
<polygon fill="black" stroke="black" points="1143.71,-254.05 1133.31,-252.07 1140.21,-260.11 1143.71,-254.05"/>
</g>
</g>
</svg>
